<?xml version="1.0" encoding="iso-8859-1"?>
<svg version="1.1" id="Capa_1" xmlns="http://www.w3.org/2000/svg" xmlns:xlink="http://www.w3.org/1999/xlink" width="100mm" height="125mm" viewBox="0 0 100 125">
  <polygon points="50,10 5,25 15,95 50,95" style="stroke: none; fill: rgb(163, 40, 40)" />
  <polygon points="50,10 95,25 85,95 50,95" style="stroke: none; fill: rgb(102, 19, 19)" />
  <polygon points="50,10 5,25, 15,95, 85,95 95,25 " style="stroke: rgb(104, 102, 102); stroke-width:2; fill:none" />

  <polygon points="30,15 25,5, 20,5" style="stroke: rgb(104, 102, 102); stroke-width:1; fill:rgb(163, 40, 40)" />
  <polygon points="70,15 75,5, 80,5" style="stroke: rgb(104, 102, 102); stroke-width:1; fill:rgb(163, 40, 40)" />

  <polygon points="30,95 25,115, 35,95" style="stroke: rgb(104, 102, 102); stroke-width:1; fill:rgb(163, 40, 40)" />
  <polygon points="70,95 75,115, 65,95" style="stroke: rgb(104, 102, 102); stroke-width:1; fill:rgb(163, 40, 40)" />

  <circle cx="35" cy="30" r="5" style="stroke: rgb(104, 102, 102); stroke-width:1; fill:rgb(199, 192, 192)" />
  <circle cx="70" cy="30" r="5" style="stroke: rgb(104, 102, 102); stroke-width:1; fill:rgb(199, 192, 192)" />

  <path d="M40 65 L50 32 L60 65" style="stroke: white; stroke-width: 4; fill: none"></path>
  <path d="M42 55 L58 55" style="stroke: white; stroke-width: 4; fill: none"></path>
  
  <rect x="35" y="70" rx="2" ry="2" width="30" height="10" style="stroke: rgb(104, 102, 102); stroke-width:1; fill:rgb(199, 192, 192)" />
</svg>