<?xml version="1.0" encoding="UTF-8" standalone="no"?>
<svg
   xmlns:dc="http://purl.org/dc/elements/1.1/"
   xmlns:cc="http://creativecommons.org/ns#"
   xmlns:rdf="http://www.w3.org/1999/02/22-rdf-syntax-ns#"
   xmlns:svg="http://www.w3.org/2000/svg"
   xmlns="http://www.w3.org/2000/svg"
   xmlns:sodipodi="http://sodipodi.sourceforge.net/DTD/sodipodi-0.dtd"
   xmlns:inkscape="http://www.inkscape.org/namespaces/inkscape"
   version="1.1"
   id="Capa_1"
   width="100px"
   height="125px"
   viewBox="0 0 100 125"
   sodipodi:docname="EnemyBomb.svg"
   inkscape:version="0.92.4 (5da689c313, 2019-01-14)">
  <metadata
     id="metadata42">
    <rdf:RDF>
      <cc:Work
         rdf:about="">
        <dc:format>image/svg+xml</dc:format>
        <dc:type
           rdf:resource="http://purl.org/dc/dcmitype/StillImage" />
        <dc:title></dc:title>
      </cc:Work>
    </rdf:RDF>
  </metadata>
  <defs
     id="defs40" />
  <sodipodi:namedview
     pagecolor="#ffffff"
     bordercolor="#666666"
     borderopacity="1"
     objecttolerance="10"
     gridtolerance="10"
     guidetolerance="10"
     inkscape:pageopacity="0"
     inkscape:pageshadow="2"
     inkscape:window-width="3840"
     inkscape:window-height="2035"
     id="namedview38"
     showgrid="false"
     inkscape:zoom="14.064"
     inkscape:cx="50"
     inkscape:cy="62.5"
     inkscape:window-x="-13"
     inkscape:window-y="-13"
     inkscape:window-maximized="1"
     inkscape:current-layer="Capa_1" />
  <!-- cap -->
  <polygon
     points="20,10 10,10 15,5 "
     style="fill:#ff0000;stroke:#000000;stroke-width:1"
     id="polygon27"
     transform="matrix(1,0,0,-1,0,62.792893)" />
  <!-- body -->
  <polygon
     points="18,10 18,58 12,58 12,10 "
     style="fill:#ffffff;stroke:#000000;stroke-width:1"
     id="polygon29"
     transform="matrix(1,0,0,-1,0,62.792893)" />
  <!-- tail -->
  <polygon
     points="21,58 21,50 18,45 12,45 9,50 9,58 "
     style="fill:#971748;stroke:#000000;stroke-width:1"
     id="polygon31"
     transform="matrix(1,0,0,-1,0,62.792893)" />
  <!-- left fin-->
  <polygon
     points="9,24 9,32 12,28 12,20 "
     style="fill:#971748;stroke:#000000;stroke-width:1"
     id="polygon33"
     transform="matrix(1,0,0,-1,0,62.792893)" />
  <!-- right fin-->
  <polygon
     points="21,24 21,32 18,28 18,20 "
     style="fill:#971748;stroke:#000000;stroke-width:1"
     id="polygon35"
     transform="matrix(1,0,0,-1,0,62.792893)" />
</svg>
