<?xml version="1.0" encoding="iso-8859-1"?>
<svg version="1.1" id="Capa_1" xmlns="http://www.w3.org/2000/svg" xmlns:xlink="http://www.w3.org/1999/xlink" width="100mm" height="125mm" viewBox="0 0 100 125">
 <polygon points="50,20 5,20, 15,85, 50,95 85,85, 95,20 " style="stroke: none; fill:rgb(192, 192, 36)" />
        <polygon points="50,25 90,25, 80,80, 50,90" style="stroke:none; fill:rgb(224, 224, 9)" />

        <polygon points="30,19 30,5, 20,5" style="stroke: rgb(104, 102, 102); stroke-width:1; fill:rgb(224, 224, 9)" />
        <polygon points="70,19 70,5, 80,5" style="stroke: rgb(104, 102, 102); stroke-width:1; fill:rgb(224, 224, 9)" />

        <polygon points="65,90 65,115, 58,115 60,92" style="stroke: rgb(104, 102, 102); stroke-width:1; fill:rgb(224, 224, 9)" />
        <polygon points="35,90 35,115, 42,115 40,92" style="stroke: rgb(104, 102, 102); stroke-width:1; fill:rgb(224, 224, 9)" />

        <circle cx="30" cy="43" r="5" style="stroke: rgb(104, 102, 102); stroke-width:1; fill:rgb(230, 219, 219)" />
        <circle cx="75" cy="43" r="5" style="stroke: rgb(104, 102, 102); stroke-width:1; fill:rgb(230, 219, 219)" />

        <path d="M 42,27 L 42,80 L 22,75 L 21,71" style="stroke: white; stroke-width:8; fill:none;" />
        <path d="M 78,31 L 58,31 L 58,57 L 74,55 L 74,75 L 58,80 L 58, 76" style="stroke: white; stroke-width:8; fill:none;" />
</svg>