<svg id="Layer_1" data-name="Layer 1" xmlns="http://www.w3.org/2000/svg" viewBox="0 0 339 191.5"><defs><style>.cls-1{fill:#666;}.cls-1,.cls-3,.cls-6{stroke:#000;}.cls-1,.cls-3,.cls-4,.cls-6{stroke-miterlimit:10;}.cls-2{fill:#c1272d;}.cls-3,.cls-4{fill:#fff;}.cls-3,.cls-4,.cls-6{stroke-width:6px;}.cls-4{stroke:#009245;}.cls-5{font-size:60.11px;fill:#009245;font-family:MyriadPro-Regular, Myriad Pro;}</style></defs><title>saucer</title><ellipse class="cls-1" cx="169.5" cy="146.5" rx="169" ry="44.5"/><path class="cls-2" d="M918,503.5c-44,0-85.44-3.33-116.58-9.36-30.45-5.91-47.92-14-47.92-22.14s17.47-16.23,47.92-22.14c31.14-6,72.54-9.36,116.58-9.36s85.44,3.33,116.58,9.36c30.45,5.91,47.92,14,47.92,22.14s-17.47,16.23-47.92,22.14C1003.44,500.17,962,503.5,918,503.5Z" transform="translate(-748 -333.5)"/><path d="M918,441c44,0,85.38,3.32,116.48,9.35,30.2,5.86,47.52,13.75,47.52,21.65s-17.32,15.79-47.52,21.65C1003.38,499.68,962,503,918,503s-85.38-3.32-116.48-9.35C771.32,487.79,754,479.9,754,472s17.32-15.79,47.52-21.65C832.62,444.32,874,441,918,441m0-1c-45.56,0-86.81,3.58-116.67,9.37S753,463.16,753,472s18.47,16.84,48.33,22.63S872.44,504,918,504s86.81-3.58,116.67-9.37S1083,480.84,1083,472s-18.47-16.84-48.33-22.63S963.56,440,918,440Z" transform="translate(-748 -333.5)"/><path class="cls-3" d="M836.5,442c0-58.27,33.8-105.5,75.5-105.5s75.5,47.23,75.5,105.5" transform="translate(-748 -333.5)"/><path class="cls-1" d="M1052.5,457.25c0,7-15.25,13.29-39.91,17.85s-58.72,7.4-96.34,7.4-71.69-2.83-96.34-7.4S780,464.22,780,457.25" transform="translate(-748 -333.5)"/><path class="cls-1" d="M780,457.25c0-7,15.25-13.29,39.91-17.85s58.72-7.4,96.34-7.4,71.69,2.83,96.34,7.4,39.91,10.88,39.91,17.85" transform="translate(-748 -333.5)"/><polygon class="cls-4" points="184.38 20.7 143.13 20.7 122.5 55.4 143.13 90.11 184.38 90.11 205 55.4 184.38 20.7"/><text class="cls-5" transform="translate(136.4 79.47) scale(1.03 1)">JS</text><polygon class="cls-6" points="29.41 140.22 26.05 143.52 21.51 142.25 20.34 137.69 23.7 134.39 28.24 135.66 29.41 140.22"/><polygon class="cls-6" points="225.54 158.85 222.17 162.15 217.63 160.89 216.46 156.32 219.83 153.03 224.37 154.29 225.54 158.85"/><polygon class="cls-6" points="97.96 155.94 94.85 159.48 90.23 158.56 88.72 154.09 91.83 150.55 96.45 151.48 97.96 155.94"/><polygon class="cls-6" points="315.96 138.94 312.85 142.48 308.23 141.56 306.72 137.09 309.83 133.55 314.45 134.48 315.96 138.94"/></svg>