<?xml version="1.0"?>
<svg xmlns:rdf="http://www.w3.org/1999/02/22-rdf-syntax-ns#" xmlns="http://www.w3.org/2000/svg" xmlns:cc="http://web.resource.org/cc/" xmlns:xlink="http://www.w3.org/1999/xlink" xmlns:dc="http://purl.org/dc/elements/1.1/" xmlns:svg="http://www.w3.org/2000/svg" id="Layer_1" xml:space="preserve" viewBox="0 0 720 720" y="0px" version="1.1" enable-background="new 0 0 720 720" x="0px">
	<path d="m477.97 207.32c0 14.436-11.71 26.132-26.133 26.132-14.436 0-26.14-11.696-26.14-26.132v-88.728c0-14.436 11.704-26.133 26.14-26.133 14.423 0 26.133 11.697 26.133 26.133v88.73z" stroke-width="3" stroke="blue" fill="purple" />
	<path d="m287.15 207.32c0 14.436-11.71 26.132-26.132 26.132-14.433 0-26.137-11.696-26.137-26.132v-88.728c0-14.436 11.704-26.133 26.137-26.133 14.422 0 26.132 11.697 26.132 26.133v88.73z" stroke-width="3" stroke="blue" fill="purple" />
	<path d="m350.76 220.08c0 14.437-11.704 26.133-26.133 26.133-14.433 0-26.133-11.696-26.133-26.133v-124.47c0-14.437 11.7-26.137 26.133-26.137 14.429 0 26.133 11.7 26.133 26.137v124.47z" stroke-width="3" stroke="blue" fill="purple" />
	<path d="m414.37 220.08c0 14.437-11.711 26.133-26.14 26.133-14.43 0-26.133-11.696-26.133-26.133v-124.47c0-14.437 11.703-26.137 26.133-26.137 14.429 0 26.14 11.7 26.14 26.137v124.47z" stroke-width="3" stroke="blue" fill="purple" />
	<path d="m497.57 581.58h-143.07l0.014-11.66h138.98l-20.725-59.605h-118.17l0.014-11.668h114.11l-19.329-55.592-94.716 0.401 0.015-10.902h91.046l-13.078-37.579h-169.81c-9 30.018-37.772 130.18-55.141 239.32 0 0 126.66 46.735 146.79-32.478l0.007-3.77c6.753 19.014 22.556 48.309 58.438 63.861 49.439 21.41 100.39 1.681 111.48-3.148l-26.85-77.18z" stroke-width="3" stroke="blue" fill="purple" />
	<path d="m459.54 247.46c-20.167-2.604-42.637-0.401-62.145 13.871-18.958 13.871-29.316 31.92-34.89 48.996-0.515-2.418-1.052-4.857-1.738-7.483-20.746-79.363-107.43-114.77-107.43-114.77l-31.749 56.164 37.769 109.88h174.3l83.392-86.682 2.439-124.53c-0.02-0.01-62.78 13.09-59.96 104.55z" stroke-width="3" stroke="blue" fill="purple" />
<metadata><rdf:RDF><cc:Work><dc:format>image/svg+xml</dc:format><dc:type rdf:resource="http://purl.org/dc/dcmitype/StillImage" /><cc:license rdf:resource="http://creativecommons.org/licenses/publicdomain/" /><dc:publisher><cc:Agent rdf:about="http://openclipart.org/"><dc:title>Openclipart</dc:title></cc:Agent></dc:publisher><dc:title>Gauntlet</dc:title><dc:date>2010-07-19T21:44:13</dc:date><dc:description>Simplified illustration of a gauntlet based on an ancient coat of arms.</dc:description><dc:source>http://openclipart.org/detail/73879/gauntlet-by-jgm104</dc:source><dc:creator><cc:Agent><dc:title>jgm104</dc:title></cc:Agent></dc:creator><dc:subject><rdf:Bag><rdf:li>battle</rdf:li><rdf:li>clip art</rdf:li><rdf:li>clipart</rdf:li><rdf:li>defense</rdf:li><rdf:li>military</rdf:li><rdf:li>shield</rdf:li><rdf:li>war</rdf:li></rdf:Bag></dc:subject></cc:Work><cc:License rdf:about="http://creativecommons.org/licenses/publicdomain/"><cc:permits rdf:resource="http://creativecommons.org/ns#Reproduction" /><cc:permits rdf:resource="http://creativecommons.org/ns#Distribution" /><cc:permits rdf:resource="http://creativecommons.org/ns#DerivativeWorks" /></cc:License></rdf:RDF></metadata></svg>