<svg id="Layer_1" data-name="Layer 1" xmlns="http://www.w3.org/2000/svg" viewBox="0 0 472.15 401"><defs><style>.cls-1{fill:#fff;}.cls-1,.cls-2,.cls-3,.cls-4,.cls-5,.cls-6,.cls-7,.cls-8{stroke:#000;stroke-miterlimit:10;}.cls-2{fill:#ed1c24;}.cls-3{fill:#662d91;}.cls-4{fill:#666;}.cls-5{fill:aqua;}.cls-6,.cls-7{stroke-width:4px;}.cls-7{fill:none;}.cls-8{fill:#fbb03b;}</style></defs><title>PlayerMoving</title><rect class="cls-1" x="393.63" y="241.06" width="25" height="119"/><polygon class="cls-2" points="429.35 240.06 381.63 240.78 406.42 198.2 429.35 240.06"/><rect class="cls-1" x="49.65" y="238.5" width="25" height="119"/><polygon class="cls-2" points="85.37 237.5 37.65 238.22 62.44 195.64 85.37 237.5"/><polygon class="cls-3" points="330.65 279.5 141.65 279.5 179.45 0.5 292.85 0.5 330.65 279.5"/><polygon class="cls-4" points="330.15 276 330.15 399.82 471.35 399.82 471.35 337.91 330.15 276"/><polygon class="cls-4" points="141.7 276.12 141.7 399.94 0.5 399.94 0.5 338.03 141.7 276.12"/><rect class="cls-3" x="141.65" y="276.5" width="189" height="124"/><polygon class="cls-5" points="276.15 222 235.9 222 195.65 222 195.65 159 211.75 96 235.9 96 260.05 96 276.15 159 276.15 222"/><rect class="cls-6" x="192.15" y="337" width="86" height="61"/><rect class="cls-3" x="0.65" y="363.5" width="141" height="20"/><rect class="cls-3" x="330.65" y="364.5" width="141" height="18"/><path class="cls-7" d="M513,853" transform="translate(-318.85 -453)"/><rect class="cls-8" x="195.65" y="338.5" width="76" height="60"/></svg>